<svg xmlns="http://www.w3.org/2000/svg" xmlns:xlink="http://www.w3.org/1999/xlink" xmlns:lucid="lucid" width="1140" height="798"><g transform="translate(-480 -20)" lucid:page-tab-id="0_0"><path d="M1263 734.2c-1.65-2.88-1.65-7.52 0-10.4l34-58.6c1.65-2.88 5.7-5.2 9-5.2h68c3.3 0 7.35 2.32 9 5.2l34 58.6c1.65 2.88 1.65 7.52 0 10.4l-34 58.6c-1.65 2.88-5.7 5.2-9 5.2h-68c-3.3 0-7.35-2.32-9-5.2z" stroke="#333" stroke-width="3" fill="#b391b5"/><use xlink:href="#a" transform="matrix(1,0,0,1,1265,665) translate(7.937098765432106 59.78777777777778)"/><use xlink:href="#b" transform="matrix(1,0,0,1,1265,665) translate(38.029691358024685 86.45444444444445)"/><path d="M835.33 734.2c-1.66-2.88-1.66-7.52 0-10.4l33.98-58.6c1.67-2.88 5.7-5.2 9.02-5.2h68c3.3 0 7.35 2.32 9 5.2l34 58.6c1.65 2.88 1.65 7.52 0 10.4l-34 58.6c-1.65 2.88-5.7 5.2-9 5.2h-68c-3.3 0-7.35-2.32-9-5.2z" stroke="#5e5e5e" stroke-width="3" fill="#ff8f80"/><use xlink:href="#c" transform="matrix(1,0,0,1,837.3211494396611,665) translate(20.992654320987654 53.77777777777778)"/><use xlink:href="#d" transform="matrix(1,0,0,1,837.3211494396611,665) translate(83.40006172839506 53.77777777777778)"/><use xlink:href="#e" transform="matrix(1,0,0,1,837.3211494396611,665) translate(31.795123456790115 80.44444444444446)"/><path d="M503 434.2c-1.65-2.88-1.65-7.52 0-10.4l34-58.6c1.65-2.88 5.7-5.2 9-5.2h68c3.3 0 7.35 2.32 9 5.2l34 58.6c1.65 2.88 1.65 7.52 0 10.4l-34 58.6c-1.65 2.88-5.7 5.2-9 5.2h-68c-3.3 0-7.35-2.32-9-5.2z" stroke="#5e5e5e" stroke-width="3" fill="#5e5e5e"/><use xlink:href="#f" transform="matrix(1,0,0,1,505,365) translate(6.78277777777779 60.01)"/><use xlink:href="#g" transform="matrix(1,0,0,1,505,365) translate(36.11611111111111 84.00999999999999)"/><path d="M500 660h154c3.3 0 6 2.7 6 6v108c0 3.3-2.7 6-6 6H506c-3.3 0-6-2.7-6-6zm16 0v120m-16-104h160" stroke="#5e5e5e" stroke-width="3" fill="#ccc"/><use xlink:href="#h" transform="matrix(1,0,0,1,521,681) translate(4.888888888888893 39.5)"/><use xlink:href="#i" transform="matrix(1,0,0,1,521,681) translate(109.16666666666666 39.5)"/><use xlink:href="#j" transform="matrix(1,0,0,1,521,681) translate(10.027777777777779 63.5)"/><path d="M1443 114.2c-1.65-2.88-1.65-7.52 0-10.4l34-58.6c1.65-2.88 5.7-5.2 9-5.2h68c3.3 0 7.35 2.32 9 5.2l34 58.6c1.65 2.88 1.65 7.52 0 10.4l-34 58.6c-1.65 2.88-5.7 5.2-9 5.2h-68c-3.3 0-7.35-2.32-9-5.2z" stroke="#5e5e5e" stroke-width="3" fill="#e5e5e5"/><use xlink:href="#k" transform="matrix(1,0,0,1,1445,45) translate(42.96796296296296 53.77777777777778)"/><use xlink:href="#e" transform="matrix(1,0,0,1,1445,45) translate(31.795123456790115 80.44444444444446)"/><path d="M1443 305.2c-1.65-2.88-1.65-7.52 0-10.4l34-58.6c1.65-2.88 5.7-5.2 9-5.2h68c3.3 0 7.35 2.32 9 5.2l34 58.6c1.65 2.88 1.65 7.52 0 10.4l-34 58.6c-1.65 2.88-5.7 5.2-9 5.2h-68c-3.3 0-7.35-2.32-9-5.2z" stroke="#5e5e5e" stroke-width="3" fill="#e5e5e5"/><use xlink:href="#l" transform="matrix(1,0,0,1,1445,236) translate(26.332160493827146 53.77777777777778)"/><use xlink:href="#m" transform="matrix(1,0,0,1,1445,236) translate(10.19018518518518 80.44444444444446)"/><use xlink:href="#n" transform="matrix(1,0,0,1,1445,236) translate(53.40006172839506 80.44444444444446)"/><path d="M880 135c0-3.3 2.7-6 6-6h132c3.3 0 6 2.7 6 6v96c-24.05-17.03-39.02-17.03-48.1-17.03-14.4 0-33.55 17.03-47.95 17.03-8.93 0-24.05 0-47.95-17.03z" stroke="#5e5e5e" stroke-width="3" fill="#c1e4f7"/><path d="M888 144c0-3.3 2.7-6 6-6h132c3.3 0 6 2.7 6 6v96c-24.05-17.03-39.02-17.03-48.1-17.03-14.4 0-33.55 17.03-47.95 17.03-8.93 0-24.05 0-47.95-17.03z" stroke="#5e5e5e" stroke-width="3" fill="#c1e4f7"/><path d="M896 153c0-3.3 2.7-6 6-6h132c3.3 0 6 2.7 6 6v96c-24.05-17.03-39.02-17.03-48.1-17.03-14.4 0-33.55 17.03-47.95 17.03-8.93 0-24.05 0-47.95-17.03z" stroke="#5e5e5e" stroke-width="3" fill="#c1e4f7"/><use xlink:href="#o" transform="matrix(1,0,0,1,901,152) translate(4.216049382716037 17.77777777777778)"/><use xlink:href="#p" transform="matrix(1,0,0,1,901,152) translate(36.19135802469136 44.44444444444444)"/><path d="M1241.88 183.13l-.93 3.42-2.53 2.53-3.4.92H1060v-2h174.74l2.65-.7 1.76-1.8.72-2.63v-23.2h2zM1439.25 110H1247l-2.63.7-1.78 1.8-.72 2.63v23.2h-2v-23.46l.92-3.42 2.53-2.53 3.4-.92h192.52z" fill="#5e5e5e"/><path d="M1440.25 109.02l.13.98h-1.15v-2h1.15zM1059 193.64l-14.26-4.64 14.26-4.64z" fill="#5e5e5e"/><path d="M1060 195l-18.5-6 18.5-6zm-12.03-6l10.03 3.26v-6.52z" fill="#5e5e5e"/><use xlink:href="#q" transform="matrix(1,0,0,1,1160.0373985740919,138.33333333333346) translate(0 14.222222222222223)"/><use xlink:href="#r" transform="matrix(1,0,0,1,1160.0373985740919,138.33333333333346) translate(89.62962962962962 14.222222222222223)"/><use xlink:href="#s" transform="matrix(1,0,0,1,1160.0373985740919,138.33333333333346) translate(140.98765432098764 14.222222222222223)"/><path d="M1241.88 293.87l.7 2.64 1.8 1.8 2.63.7h192.25v2h-192.5l-3.42-.92-2.53-2.53-.92-3.42v-22.3h2zm-3.46-71.6l2.53 2.52.93 3.4v22.3h-2v-22.03l-.72-2.65-1.77-1.77-2.66-.72H1060v-2h175z" fill="#5e5e5e"/><path d="M1440.25 300.02l.13.98h-1.15v-2h1.15zM1059 226.97l-14.26-4.64 14.26-4.63z" fill="#5e5e5e"/><path d="M1060 228.35l-18.5-6.02 18.5-6zm-12.03-6.02l10.03 3.26v-6.53z" fill="#5e5e5e"/><use xlink:href="#q" transform="matrix(1,0,0,1,1148.7781393148323,250.49999999999997) translate(0 14.222222222222223)"/><use xlink:href="#t" transform="matrix(1,0,0,1,1148.7781393148323,250.49999999999997) translate(89.62962962962962 14.222222222222223)"/><use xlink:href="#u" transform="matrix(1,0,0,1,1148.7781393148323,250.49999999999997) translate(116.19753086419752 14.222222222222223)"/><path d="M1334.13 409l3.42.92 2.53 2.53.92 3.42V657.5h-2V416.13l-.7-2.64-1.8-1.8-2.63-.7h-42.4v-2zm-324.7-2.5l1.76 1.8 2.63.7h115.95v2h-116.2l-3.43-.92-2.53-2.53-.92-3.42V253.55h2v150.32z" fill="#5e5e5e"/><path d="M1341 658.5h-2v-1.03h2zM1012.34 252.55h-9.27l4.63-14.27z" fill="#5e5e5e"/><path d="M1013.7 253.55h-12l6-18.5zm-9.26-2h6.52l-3.26-10.03z" fill="#5e5e5e"/><use xlink:href="#q" transform="matrix(1,0,0,1,1129.784587094436,399.3333333333333) translate(0 14.222222222222223)"/><use xlink:href="#r" transform="matrix(1,0,0,1,1129.784587094436,399.3333333333333) translate(89.62962962962962 14.222222222222223)"/><use xlink:href="#v" transform="matrix(1,0,0,1,1129.784587094436,399.3333333333333) translate(140.98765432098764 14.222222222222223)"/><path d="M913.32 657.5h-2v-69.4h2zm0-90.74h-2v-304.9h2z" fill="#5e5e5e"/><path d="M913.32 658.5h-2v-1.03h2zM916.96 260.87h-9.27l4.62-14.26z" fill="#5e5e5e"/><path d="M918.33 261.87H906.3l6.02-18.5zm-9.27-2h6.52l-3.26-10.03z" fill="#5e5e5e"/><use xlink:href="#q" transform="matrix(1,0,0,1,831.4816432668216,566.7607780581774) translate(0 14.222222222222223)"/><use xlink:href="#r" transform="matrix(1,0,0,1,831.4816432668216,566.7607780581774) translate(89.62962962962962 14.222222222222223)"/><use xlink:href="#w" transform="matrix(1,0,0,1,831.4816432668216,566.7607780581774) translate(140.98765432098764 14.222222222222223)"/><path d="M581 640h-2v-50.33h2zm0-71.67h-2V518h2zM580 655.26L575.36 641h9.28z" fill="#5e5e5e"/><path d="M580 658.5l-6-18.5h12zm-3.26-16.5l3.26 10.03 3.26-10.03zM584.64 517h-9.28l4.64-14.26z" fill="#5e5e5e"/><path d="M586 518h-12l6-18.5zm-9.26-2h6.52L580 505.97z" fill="#5e5e5e"/><use xlink:href="#x" transform="matrix(1,0,0,1,503.1604938271605,568.3333333333334) translate(0 14.222222222222223)"/><use xlink:href="#y" transform="matrix(1,0,0,1,503.1604938271605,568.3333333333334) translate(60.14814814814816 14.222222222222223)"/><path d="M860 153.33H546.15c-3.3 0-6 2.7-6 6v182.43" stroke="#5e5e5e" stroke-width="2" fill="none"/><path d="M875.26 153.33L861 157.97v-9.27zM540.15 357.02l-4.64-14.26h9.3z" stroke="#5e5e5e" stroke-width="2" fill="#5e5e5e"/><g><use xlink:href="#z" transform="matrix(1,0,0,1,584.311930483088,128.00000000000003) translate(0 14.222222222222223)"/><use xlink:href="#A" transform="matrix(1,0,0,1,584.311930483088,128.00000000000003) translate(31.506172839506178 14.222222222222223)"/><use xlink:href="#B" transform="matrix(1,0,0,1,584.311930483088,128.00000000000003) translate(86.71604938271605 14.222222222222223)"/><use xlink:href="#C" transform="matrix(1,0,0,1,584.311930483088,128.00000000000003) translate(130.07407407407408 14.222222222222223)"/><use xlink:href="#D" transform="matrix(1,0,0,1,584.311930483088,128.00000000000003) translate(158.6172839506173 14.222222222222223)"/></g><path d="M860 189.3H625.85c-3.3 0-6 2.68-6 6v146.46" stroke="#5e5e5e" stroke-width="2" fill="none"/><path d="M875.26 189.3L861 193.92v-9.27zM619.85 357.02l-4.64-14.26h9.3z" stroke="#5e5e5e" stroke-width="2" fill="#5e5e5e"/><g><use xlink:href="#E" transform="matrix(1,0,0,1,566.1262050582791,163.9592732347036) translate(0 14.222222222222223)"/><use xlink:href="#F" transform="matrix(1,0,0,1,566.1262050582791,163.9592732347036) translate(86.76543209876544 14.222222222222223)"/><use xlink:href="#C" transform="matrix(1,0,0,1,566.1262050582791,163.9592732347036) translate(185.23456790123458 14.222222222222223)"/><use xlink:href="#G" transform="matrix(1,0,0,1,566.1262050582791,163.9592732347036) translate(213.7777777777778 14.222222222222223)"/><use xlink:href="#H" transform="matrix(1,0,0,1,566.1262050582791,163.9592732347036) translate(256.14814814814815 14.222222222222223)"/></g><path d="M793.57 722.87l.72 2.64 1.77 1.8 2.64.7h15.37v2h-15.63l-3.4-.92-2.54-2.53-.93-3.42V459.9h2zm105.88-453.4l-.92 3.4-2.53 2.54-3.42.93H798.7l-2.63.72-1.78 1.77-.73 2.64v157.1h-2V281.2l.93-3.42 2.53-2.53 3.4-.92h93.9l2.63-.7 1.78-1.8.7-2.63v-32.87h2z" fill="#5e5e5e"/><path d="M899.45 235.98v.38h-2v-1.67zM829.34 729l-14.27 4.64v-9.28z" fill="#5e5e5e"/><path d="M832.57 729l-18.5 6v-12zm-16.5 3.26L826.1 729l-10.03-3.26z" fill="#5e5e5e"/><g><use xlink:href="#I" transform="matrix(1,0,0,1,737.414465106363,438.5611439495334) translate(0 14.222222222222223)"/><use xlink:href="#J" transform="matrix(1,0,0,1,737.414465106363,438.5611439495334) translate(64.98765432098766 14.222222222222223)"/></g><path d="M1171 722.87l.7 2.64 1.8 1.8 2.63.7h65.62v2h-65.88l-3.42-.92-2.53-2.53-.92-3.42V480.67h2zM981.68 466.5l1.77 1.8 2.65.7h71.9v2h-72.17l-3.4-.92-2.54-2.53-.94-3.42V237.48h2v226.4z" fill="#5e5e5e"/><path d="M980.96 237.5h-2v-.63l2-.78zM1257.02 729l-14.27 4.64v-9.28z" fill="#5e5e5e"/><path d="M1260.25 729l-18.5 6v-12zm-16.5 3.26l10.03-3.26-10.03-3.26z" fill="#5e5e5e"/><g><use xlink:href="#I" transform="matrix(1,0,0,1,1057.9855598932163,459.3333333333333) translate(0 14.222222222222223)"/><use xlink:href="#K" transform="matrix(1,0,0,1,1057.9855598932163,459.3333333333333) translate(64.98765432098766 14.222222222222223)"/></g><defs><path fill="#fff" d="M212-179c-10-28-35-45-73-45-59 0-87 40-87 99 0 60 29 101 89 101 43 0 62-24 78-52l27 14C228-24 195 4 139 4 59 4 22-46 18-125c-6-104 99-153 187-111 19 9 31 26 39 46" id="L"/><path fill="#fff" d="M114-163C36-179 61-72 57 0H25l-1-190h30c1 12-1 29 2 39 6-27 23-49 58-41v29" id="M"/><path fill="#fff" d="M100-194c62-1 85 37 85 99 1 63-27 99-86 99S16-35 15-95c0-66 28-99 85-99zM99-20c44 1 53-31 53-75 0-43-8-75-51-75s-53 32-53 75 10 74 51 75" id="N"/><path fill="#fff" d="M206 0h-36l-40-164L89 0H53L-1-190h32L70-26l43-164h34l41 164 42-164h31" id="O"/><path fill="#fff" d="M85-194c31 0 48 13 60 33l-1-100h32l1 261h-30c-2-10 0-23-3-31C134-8 116 4 85 4 32 4 16-35 15-94c0-66 23-100 70-100zm9 24c-40 0-46 34-46 75 0 40 6 74 45 74 42 0 51-32 51-76 0-42-9-74-50-73" id="P"/><path fill="#fff" d="M190 0L58-211 59 0H30v-248h39L202-35l-2-213h31V0h-41" id="Q"/><path fill="#fff" d="M59-47c-2 24 18 29 38 22v24C64 9 27 4 27-40v-127H5v-23h24l9-43h21v43h35v23H59v120" id="R"/><path fill="#fff" d="M24-231v-30h32v30H24zM24 0v-190h32V0H24" id="S"/><path fill="#fff" d="M101-234c-31-9-42 10-38 44h38v23H63V0H32v-167H5v-23h27c-7-52 17-82 69-68v24" id="T"/><path fill="#fff" d="M100-194c63 0 86 42 84 106H49c0 40 14 67 53 68 26 1 43-12 49-29l28 8c-11 28-37 45-77 45C44 4 14-33 15-96c1-61 26-98 85-98zm52 81c6-60-76-77-97-28-3 7-6 17-6 28h103" id="U"/><g id="a"><use transform="matrix(0.06172839506172839,0,0,0.06172839506172839,0,0)" xlink:href="#L"/><use transform="matrix(0.06172839506172839,0,0,0.06172839506172839,15.987654320987653,0)" xlink:href="#M"/><use transform="matrix(0.06172839506172839,0,0,0.06172839506172839,23.333333333333332,0)" xlink:href="#N"/><use transform="matrix(0.06172839506172839,0,0,0.06172839506172839,35.67901234567901,0)" xlink:href="#O"/><use transform="matrix(0.06172839506172839,0,0,0.06172839506172839,51.666666666666664,0)" xlink:href="#P"/><use transform="matrix(0.06172839506172839,0,0,0.06172839506172839,64.01234567901234,0)" xlink:href="#Q"/><use transform="matrix(0.06172839506172839,0,0,0.06172839506172839,80,0)" xlink:href="#N"/><use transform="matrix(0.06172839506172839,0,0,0.06172839506172839,92.34567901234568,0)" xlink:href="#R"/><use transform="matrix(0.06172839506172839,0,0,0.06172839506172839,98.51851851851852,0)" xlink:href="#S"/><use transform="matrix(0.06172839506172839,0,0,0.06172839506172839,103.39506172839506,0)" xlink:href="#T"/><use transform="matrix(0.06172839506172839,0,0,0.06172839506172839,109.5679012345679,0)" xlink:href="#S"/><use transform="matrix(0.06172839506172839,0,0,0.06172839506172839,114.44444444444444,0)" xlink:href="#U"/><use transform="matrix(0.06172839506172839,0,0,0.06172839506172839,126.79012345679011,0)" xlink:href="#M"/></g><path fill="#fff" d="M185-189c-5-48-123-54-124 2 14 75 158 14 163 119 3 78-121 87-175 55-17-10-28-26-33-46l33-7c5 56 141 63 141-1 0-78-155-14-162-118-5-82 145-84 179-34 5 7 8 16 11 25" id="V"/><path fill="#fff" d="M108 0H70L1-190h34L89-25l56-165h34" id="W"/><path fill="#fff" d="M96-169c-40 0-48 33-48 73s9 75 48 75c24 0 41-14 43-38l32 2c-6 37-31 61-74 61-59 0-76-41-82-99-10-93 101-131 147-64 4 7 5 14 7 22l-32 3c-4-21-16-35-41-35" id="X"/><g id="b"><use transform="matrix(0.06172839506172839,0,0,0.06172839506172839,0,0)" xlink:href="#V"/><use transform="matrix(0.06172839506172839,0,0,0.06172839506172839,14.814814814814813,0)" xlink:href="#U"/><use transform="matrix(0.06172839506172839,0,0,0.06172839506172839,27.160493827160494,0)" xlink:href="#M"/><use transform="matrix(0.06172839506172839,0,0,0.06172839506172839,34.50617283950617,0)" xlink:href="#W"/><use transform="matrix(0.06172839506172839,0,0,0.06172839506172839,45.61728395061728,0)" xlink:href="#S"/><use transform="matrix(0.06172839506172839,0,0,0.06172839506172839,50.49382716049382,0)" xlink:href="#X"/><use transform="matrix(0.06172839506172839,0,0,0.06172839506172839,61.60493827160494,0)" xlink:href="#U"/></g><path fill="#333" d="M30-248c118-7 216 8 213 122C240-48 200 0 122 0H30v-248zM63-27c89 8 146-16 146-99s-60-101-146-95v194" id="Y"/><path fill="#333" d="M30-248c87 1 191-15 191 75 0 78-77 80-158 76V0H30v-248zm33 125c57 0 124 11 124-50 0-59-68-47-124-48v98" id="Z"/><path fill="#333" d="M126-127c33 6 58 20 58 59 0 88-139 92-164 29-3-8-5-16-6-25l32-3c6 27 21 44 54 44 32 0 52-15 52-46 0-38-36-46-79-43v-28c39 1 72-4 72-42 0-27-17-43-46-43-28 0-47 15-49 41l-32-3c6-42 35-63 81-64 48-1 79 21 79 65 0 36-21 52-52 59" id="aa"/><path fill="#333" d="M127-220V0H93v-220H8v-28h204v28h-85" id="ab"/><g id="c"><use transform="matrix(0.06172839506172839,0,0,0.06172839506172839,0,0)" xlink:href="#Y"/><use transform="matrix(0.06172839506172839,0,0,0.06172839506172839,15.987654320987653,0)" xlink:href="#Z"/><use transform="matrix(0.06172839506172839,0,0,0.06172839506172839,30.80246913580247,0)" xlink:href="#aa"/><use transform="matrix(0.06172839506172839,0,0,0.06172839506172839,43.148148148148145,0)" xlink:href="#ab"/></g><path fill="#333" d="M185-189c-5-48-123-54-124 2 14 75 158 14 163 119 3 78-121 87-175 55-17-10-28-26-33-46l33-7c5 56 141 63 141-1 0-78-155-14-162-118-5-82 145-84 179-34 5 7 8 16 11 25" id="ac"/><path fill="#333" d="M194 0L95-120 63-95V0H30v-248h33v124l119-124h40L117-140 236 0h-42" id="ad"/><g id="d"><use transform="matrix(0.06172839506172839,0,0,0.06172839506172839,0,0)" xlink:href="#ac"/><use transform="matrix(0.06172839506172839,0,0,0.06172839506172839,14.814814814814813,0)" xlink:href="#Y"/><use transform="matrix(0.06172839506172839,0,0,0.06172839506172839,30.80246913580247,0)" xlink:href="#ad"/></g><path fill="#333" d="M160-131c35 5 61 23 61 61C221 17 115-2 30 0v-248c76 3 177-17 177 60 0 33-19 50-47 57zm-97-11c50-1 110 9 110-42 0-47-63-36-110-37v79zm0 115c55-2 124 14 124-45 0-56-70-42-124-44v89" id="ae"/><path fill="#333" d="M141-36C126-15 110 5 73 4 37 3 15-17 15-53c-1-64 63-63 125-63 3-35-9-54-41-54-24 1-41 7-42 31l-33-3c5-37 33-52 76-52 45 0 72 20 72 64v82c-1 20 7 32 28 27v20c-31 9-61-2-59-35zM48-53c0 20 12 33 32 33 41-3 63-29 60-74-43 2-92-5-92 41" id="af"/><path fill="#333" d="M96-169c-40 0-48 33-48 73s9 75 48 75c24 0 41-14 43-38l32 2c-6 37-31 61-74 61-59 0-76-41-82-99-10-93 101-131 147-64 4 7 5 14 7 22l-32 3c-4-21-16-35-41-35" id="ag"/><path fill="#333" d="M143 0L79-87 56-68V0H24v-261h32v163l83-92h37l-77 82L181 0h-38" id="ah"/><path fill="#333" d="M100-194c63 0 86 42 84 106H49c0 40 14 67 53 68 26 1 43-12 49-29l28 8c-11 28-37 45-77 45C44 4 14-33 15-96c1-61 26-98 85-98zm52 81c6-60-76-77-97-28-3 7-6 17-6 28h103" id="ai"/><path fill="#333" d="M117-194c89-4 53 116 60 194h-32v-121c0-31-8-49-39-48C34-167 62-67 57 0H25l-1-190h30c1 10-1 24 2 32 11-22 29-35 61-36" id="aj"/><path fill="#333" d="M85-194c31 0 48 13 60 33l-1-100h32l1 261h-30c-2-10 0-23-3-31C134-8 116 4 85 4 32 4 16-35 15-94c0-66 23-100 70-100zm9 24c-40 0-46 34-46 75 0 40 6 74 45 74 42 0 51-32 51-76 0-42-9-74-50-73" id="ak"/><g id="e"><use transform="matrix(0.06172839506172839,0,0,0.06172839506172839,0,0)" xlink:href="#ae"/><use transform="matrix(0.06172839506172839,0,0,0.06172839506172839,14.814814814814813,0)" xlink:href="#af"/><use transform="matrix(0.06172839506172839,0,0,0.06172839506172839,27.160493827160494,0)" xlink:href="#ag"/><use transform="matrix(0.06172839506172839,0,0,0.06172839506172839,38.27160493827161,0)" xlink:href="#ah"/><use transform="matrix(0.06172839506172839,0,0,0.06172839506172839,49.38271604938272,0)" xlink:href="#ai"/><use transform="matrix(0.06172839506172839,0,0,0.06172839506172839,61.7283950617284,0)" xlink:href="#aj"/><use transform="matrix(0.06172839506172839,0,0,0.06172839506172839,74.07407407407408,0)" xlink:href="#ak"/></g><path fill="#fff" d="M197 0v-115H63V0H30v-248h33v105h134v-105h34V0h-34" id="al"/><path fill="#fff" d="M141-36C126-15 110 5 73 4 37 3 15-17 15-53c-1-64 63-63 125-63 3-35-9-54-41-54-24 1-41 7-42 31l-33-3c5-37 33-52 76-52 45 0 72 20 72 64v82c-1 20 7 32 28 27v20c-31 9-61-2-59-35zM48-53c0 20 12 33 32 33 41-3 63-29 60-74-43 2-92-5-92 41" id="am"/><path fill="#fff" d="M24 0v-261h32V0H24" id="an"/><path fill="#fff" d="M106-169C34-169 62-67 57 0H25v-261h32l-1 103c12-21 28-36 61-36 89 0 53 116 60 194h-32v-121c2-32-8-49-39-48" id="ao"/><path fill="#fff" d="M205 0l-28-72H64L36 0H1l101-248h38L239 0h-34zm-38-99l-47-123c-12 45-31 82-46 123h93" id="ap"/><path fill="#fff" d="M84 4C-5 8 30-112 23-190h32v120c0 31 7 50 39 49 72-2 45-101 50-169h31l1 190h-30c-1-10 1-25-2-33-11 22-28 36-60 37" id="aq"/><path fill="#fff" d="M179-190L93 31C79 59 56 82 12 73V49c39 6 53-20 64-50L1-190h34L92-34l54-156h33" id="ar"/><g id="f"><use transform="matrix(0.055555555555555546,0,0,0.055555555555555546,0,0)" xlink:href="#al"/><use transform="matrix(0.055555555555555546,0,0,0.055555555555555546,14.388888888888886,0)" xlink:href="#U"/><use transform="matrix(0.055555555555555546,0,0,0.055555555555555546,25.499999999999993,0)" xlink:href="#am"/><use transform="matrix(0.055555555555555546,0,0,0.055555555555555546,36.6111111111111,0)" xlink:href="#an"/><use transform="matrix(0.055555555555555546,0,0,0.055555555555555546,40.999999999999986,0)" xlink:href="#R"/><use transform="matrix(0.055555555555555546,0,0,0.055555555555555546,46.55555555555554,0)" xlink:href="#ao"/><use transform="matrix(0.055555555555555546,0,0,0.055555555555555546,57.66666666666666,0)" xlink:href="#ap"/><use transform="matrix(0.055555555555555546,0,0,0.055555555555555546,70.99999999999999,0)" xlink:href="#aq"/><use transform="matrix(0.055555555555555546,0,0,0.055555555555555546,82.1111111111111,0)" xlink:href="#R"/><use transform="matrix(0.055555555555555546,0,0,0.055555555555555546,87.66666666666666,0)" xlink:href="#ao"/><use transform="matrix(0.055555555555555546,0,0,0.055555555555555546,98.77777777777777,0)" xlink:href="#N"/><use transform="matrix(0.055555555555555546,0,0,0.055555555555555546,109.88888888888889,0)" xlink:href="#M"/><use transform="matrix(0.055555555555555546,0,0,0.055555555555555546,116.5,0)" xlink:href="#S"/><use transform="matrix(0.055555555555555546,0,0,0.055555555555555546,120.88888888888889,0)" xlink:href="#R"/><use transform="matrix(0.055555555555555546,0,0,0.055555555555555546,126.44444444444444,0)" xlink:href="#ar"/></g><path fill="#fff" d="M160-131c35 5 61 23 61 61C221 17 115-2 30 0v-248c76 3 177-17 177 60 0 33-19 50-47 57zm-97-11c50-1 110 9 110-42 0-47-63-36-110-37v79zm0 115c55-2 124 14 124-45 0-56-70-42-124-44v89" id="as"/><path fill="#fff" d="M143 0L79-87 56-68V0H24v-261h32v163l83-92h37l-77 82L181 0h-38" id="at"/><path fill="#fff" d="M117-194c89-4 53 116 60 194h-32v-121c0-31-8-49-39-48C34-167 62-67 57 0H25l-1-190h30c1 10-1 24 2 32 11-22 29-35 61-36" id="au"/><g id="g"><use transform="matrix(0.055555555555555546,0,0,0.055555555555555546,0,0)" xlink:href="#as"/><use transform="matrix(0.055555555555555546,0,0,0.055555555555555546,13.33333333333333,0)" xlink:href="#am"/><use transform="matrix(0.055555555555555546,0,0,0.055555555555555546,24.44444444444444,0)" xlink:href="#X"/><use transform="matrix(0.055555555555555546,0,0,0.055555555555555546,34.444444444444436,0)" xlink:href="#at"/><use transform="matrix(0.055555555555555546,0,0,0.055555555555555546,44.444444444444436,0)" xlink:href="#U"/><use transform="matrix(0.055555555555555546,0,0,0.055555555555555546,55.55555555555554,0)" xlink:href="#au"/><use transform="matrix(0.055555555555555546,0,0,0.055555555555555546,66.66666666666666,0)" xlink:href="#P"/></g><path fill="#333" d="M212-179c-10-28-35-45-73-45-59 0-87 40-87 99 0 60 29 101 89 101 43 0 62-24 78-52l27 14C228-24 195 4 139 4 59 4 22-46 18-125c-6-104 99-153 187-111 19 9 31 26 39 46" id="av"/><path fill="#333" d="M100-194c62-1 85 37 85 99 1 63-27 99-86 99S16-35 15-95c0-66 28-99 85-99zM99-20c44 1 53-31 53-75 0-43-8-75-51-75s-53 32-53 75 10 74 51 75" id="aw"/><path fill="#333" d="M108 0H70L1-190h34L89-25l56-165h34" id="ax"/><path fill="#333" d="M24-231v-30h32v30H24zM24 0v-190h32V0H24" id="ay"/><g id="h"><use transform="matrix(0.055555555555555546,0,0,0.055555555555555546,0,0)" xlink:href="#av"/><use transform="matrix(0.055555555555555546,0,0,0.055555555555555546,14.388888888888886,0)" xlink:href="#aw"/><use transform="matrix(0.055555555555555546,0,0,0.055555555555555546,25.499999999999993,0)" xlink:href="#ax"/><use transform="matrix(0.055555555555555546,0,0,0.055555555555555546,35.49999999999999,0)" xlink:href="#ay"/><use transform="matrix(0.055555555555555546,0,0,0.055555555555555546,39.88888888888888,0)" xlink:href="#ak"/><use transform="matrix(0.055555555555555546,0,0,0.055555555555555546,50.999999999999986,0)" xlink:href="#av"/><use transform="matrix(0.055555555555555546,0,0,0.055555555555555546,65.38888888888887,0)" xlink:href="#aw"/><use transform="matrix(0.055555555555555546,0,0,0.055555555555555546,76.49999999999999,0)" xlink:href="#ak"/><use transform="matrix(0.055555555555555546,0,0,0.055555555555555546,87.6111111111111,0)" xlink:href="#ai"/></g><path fill="#333" d="M232-93c-1 65-40 97-104 97C67 4 28-28 28-90v-158h33c8 89-33 224 67 224 102 0 64-133 71-224h33v155" id="az"/><path fill="#333" d="M33 0v-248h34V0H33" id="aA"/><g id="i"><use transform="matrix(0.055555555555555546,0,0,0.055555555555555546,0,0)" xlink:href="#az"/><use transform="matrix(0.055555555555555546,0,0,0.055555555555555546,14.388888888888886,0)" xlink:href="#aA"/></g><path fill="#333" d="M266 0h-40l-56-210L115 0H75L2-248h35L96-30l15-64 43-154h32l59 218 59-218h35" id="aB"/><path fill="#333" d="M115-194c53 0 69 39 70 98 0 66-23 100-70 100C84 3 66-7 56-30L54 0H23l1-261h32v101c10-23 28-34 59-34zm-8 174c40 0 45-34 45-75 0-40-5-75-45-74-42 0-51 32-51 76 0 43 10 73 51 73" id="aC"/><path fill="#333" d="M101-234c-31-9-42 10-38 44h38v23H63V0H32v-167H5v-23h27c-7-52 17-82 69-68v24" id="aD"/><path fill="#333" d="M114-163C36-179 61-72 57 0H25l-1-190h30c1 12-1 29 2 39 6-27 23-49 58-41v29" id="aE"/><path fill="#333" d="M59-47c-2 24 18 29 38 22v24C64 9 27 4 27-40v-127H5v-23h24l9-43h21v43h35v23H59v120" id="aF"/><g id="j"><use transform="matrix(0.055555555555555546,0,0,0.055555555555555546,0,0)" xlink:href="#aB"/><use transform="matrix(0.055555555555555546,0,0,0.055555555555555546,18.44444444444444,0)" xlink:href="#ai"/><use transform="matrix(0.055555555555555546,0,0,0.055555555555555546,29.55555555555555,0)" xlink:href="#aC"/><use transform="matrix(0.055555555555555546,0,0,0.055555555555555546,40.66666666666666,0)" xlink:href="#aD"/><use transform="matrix(0.055555555555555546,0,0,0.055555555555555546,46.222222222222214,0)" xlink:href="#aE"/><use transform="matrix(0.055555555555555546,0,0,0.055555555555555546,52.83333333333332,0)" xlink:href="#aw"/><use transform="matrix(0.055555555555555546,0,0,0.055555555555555546,63.944444444444436,0)" xlink:href="#aj"/><use transform="matrix(0.055555555555555546,0,0,0.055555555555555546,75.05555555555554,0)" xlink:href="#aF"/><use transform="matrix(0.055555555555555546,0,0,0.055555555555555546,80.6111111111111,0)" xlink:href="#ai"/><use transform="matrix(0.055555555555555546,0,0,0.055555555555555546,91.72222222222221,0)" xlink:href="#aj"/><use transform="matrix(0.055555555555555546,0,0,0.055555555555555546,102.83333333333333,0)" xlink:href="#ak"/></g><path fill="#333" d="M177-190C167-65 218 103 67 71c-23-6-38-20-44-43l32-5c15 47 100 32 89-28v-30C133-14 115 1 83 1 29 1 15-40 15-95c0-56 16-97 71-98 29-1 48 16 59 35 1-10 0-23 2-32h30zM94-22c36 0 50-32 50-73 0-42-14-75-50-75-39 0-46 34-46 75s6 73 46 73" id="aG"/><g id="k"><use transform="matrix(0.06172839506172839,0,0,0.06172839506172839,0,0)" xlink:href="#av"/><use transform="matrix(0.06172839506172839,0,0,0.06172839506172839,15.987654320987653,0)" xlink:href="#aw"/><use transform="matrix(0.06172839506172839,0,0,0.06172839506172839,28.333333333333332,0)" xlink:href="#aj"/><use transform="matrix(0.06172839506172839,0,0,0.06172839506172839,40.67901234567901,0)" xlink:href="#aD"/><use transform="matrix(0.06172839506172839,0,0,0.06172839506172839,46.851851851851855,0)" xlink:href="#ay"/><use transform="matrix(0.06172839506172839,0,0,0.06172839506172839,51.7283950617284,0)" xlink:href="#aG"/></g><path fill="#333" d="M205 0l-28-72H64L36 0H1l101-248h38L239 0h-34zm-38-99l-47-123c-12 45-31 82-46 123h93" id="aH"/><path fill="#333" d="M24 0v-261h32V0H24" id="aI"/><g id="l"><use transform="matrix(0.06172839506172839,0,0,0.06172839506172839,0,0)" xlink:href="#aH"/><use transform="matrix(0.06172839506172839,0,0,0.06172839506172839,14.814814814814813,0)" xlink:href="#ak"/><use transform="matrix(0.06172839506172839,0,0,0.06172839506172839,27.160493827160494,0)" xlink:href="#ak"/><use transform="matrix(0.06172839506172839,0,0,0.06172839506172839,39.50617283950617,0)" xlink:href="#ay"/><use transform="matrix(0.06172839506172839,0,0,0.06172839506172839,44.382716049382715,0)" xlink:href="#aF"/><use transform="matrix(0.06172839506172839,0,0,0.06172839506172839,50.55555555555556,0)" xlink:href="#ay"/><use transform="matrix(0.06172839506172839,0,0,0.06172839506172839,55.4320987654321,0)" xlink:href="#aw"/><use transform="matrix(0.06172839506172839,0,0,0.06172839506172839,67.77777777777779,0)" xlink:href="#aj"/><use transform="matrix(0.06172839506172839,0,0,0.06172839506172839,80.12345679012347,0)" xlink:href="#af"/><use transform="matrix(0.06172839506172839,0,0,0.06172839506172839,92.46913580246915,0)" xlink:href="#aI"/></g><g id="m"><use transform="matrix(0.06172839506172839,0,0,0.06172839506172839,0,0)" xlink:href="#aA"/><use transform="matrix(0.06172839506172839,0,0,0.06172839506172839,6.172839506172839,0)" xlink:href="#aj"/><use transform="matrix(0.06172839506172839,0,0,0.06172839506172839,18.51851851851852,0)" xlink:href="#aD"/><use transform="matrix(0.06172839506172839,0,0,0.06172839506172839,24.691358024691358,0)" xlink:href="#aw"/></g><g id="n"><use transform="matrix(0.06172839506172839,0,0,0.06172839506172839,0,0)" xlink:href="#ae"/><use transform="matrix(0.06172839506172839,0,0,0.06172839506172839,14.814814814814813,0)" xlink:href="#af"/><use transform="matrix(0.06172839506172839,0,0,0.06172839506172839,27.160493827160494,0)" xlink:href="#ag"/><use transform="matrix(0.06172839506172839,0,0,0.06172839506172839,38.27160493827161,0)" xlink:href="#ah"/><use transform="matrix(0.06172839506172839,0,0,0.06172839506172839,49.38271604938272,0)" xlink:href="#ai"/><use transform="matrix(0.06172839506172839,0,0,0.06172839506172839,61.7283950617284,0)" xlink:href="#aj"/><use transform="matrix(0.06172839506172839,0,0,0.06172839506172839,74.07407407407408,0)" xlink:href="#ak"/></g><path fill="#333" d="M206 0h-36l-40-164L89 0H53L-1-190h32L70-26l43-164h34l41 164 42-164h31" id="aJ"/><path fill="#333" d="M135-143c-3-34-86-38-87 0 15 53 115 12 119 90S17 21 10-45l28-5c4 36 97 45 98 0-10-56-113-15-118-90-4-57 82-63 122-42 12 7 21 19 24 35" id="aK"/><g id="o"><use transform="matrix(0.06172839506172839,0,0,0.06172839506172839,0,0)" xlink:href="#ac"/><use transform="matrix(0.06172839506172839,0,0,0.06172839506172839,14.814814814814813,0)" xlink:href="#aJ"/><use transform="matrix(0.06172839506172839,0,0,0.06172839506172839,30.80246913580247,0)" xlink:href="#ay"/><use transform="matrix(0.06172839506172839,0,0,0.06172839506172839,35.67901234567901,0)" xlink:href="#aK"/><use transform="matrix(0.06172839506172839,0,0,0.06172839506172839,46.79012345679013,0)" xlink:href="#aK"/><use transform="matrix(0.06172839506172839,0,0,0.06172839506172839,57.90123456790124,0)" xlink:href="#av"/><use transform="matrix(0.06172839506172839,0,0,0.06172839506172839,73.8888888888889,0)" xlink:href="#aw"/><use transform="matrix(0.06172839506172839,0,0,0.06172839506172839,86.23456790123458,0)" xlink:href="#ax"/><use transform="matrix(0.06172839506172839,0,0,0.06172839506172839,97.3456790123457,0)" xlink:href="#ay"/><use transform="matrix(0.06172839506172839,0,0,0.06172839506172839,102.22222222222224,0)" xlink:href="#ak"/></g><path fill="#333" d="M115-194c55 1 70 41 70 98S169 2 115 4C84 4 66-9 55-30l1 105H24l-1-265h31l2 30c10-21 28-34 59-34zm-8 174c40 0 45-34 45-75s-6-73-45-74c-42 0-51 32-51 76 0 43 10 73 51 73" id="aL"/><g id="p"><use transform="matrix(0.06172839506172839,0,0,0.06172839506172839,0,0)" xlink:href="#aH"/><use transform="matrix(0.06172839506172839,0,0,0.06172839506172839,14.814814814814813,0)" xlink:href="#aL"/><use transform="matrix(0.06172839506172839,0,0,0.06172839506172839,27.160493827160494,0)" xlink:href="#aL"/><use transform="matrix(0.06172839506172839,0,0,0.06172839506172839,39.50617283950617,0)" xlink:href="#aK"/></g><path fill="#333" d="M24-248c120-7 223 5 221 122C244-46 201 0 124 0H24v-248zM76-40c74 7 117-18 117-86 0-67-45-88-117-82v168" id="aM"/><path fill="#333" d="M110-194c64 0 96 36 96 99 0 64-35 99-97 99-61 0-95-36-95-99 0-62 34-99 96-99zm-1 164c35 0 45-28 45-65 0-40-10-65-43-65-34 0-45 26-45 65 0 36 10 65 43 65" id="aN"/><path fill="#333" d="M231 0h-52l-39-155L100 0H48L-1-190h46L77-45c9-52 24-97 36-145h53l37 145 32-145h46" id="aO"/><path fill="#333" d="M135-194c87-1 58 113 63 194h-50c-7-57 23-157-34-157-59 0-34 97-39 157H25l-1-190h47c2 12-1 28 3 38 12-26 28-41 61-42" id="aP"/><path fill="#333" d="M25 0v-261h50V0H25" id="aQ"/><path fill="#333" d="M133-34C117-15 103 5 69 4 32 3 11-16 11-54c-1-60 55-63 116-61 1-26-3-47-28-47-18 1-26 9-28 27l-52-2c7-38 36-58 82-57s74 22 75 68l1 82c-1 14 12 18 25 15v27c-30 8-71 5-69-32zm-48 3c29 0 43-24 42-57-32 0-66-3-65 30 0 17 8 27 23 27" id="aR"/><path fill="#333" d="M88-194c31-1 46 15 58 34l-1-101h50l1 261h-48c-2-10 0-23-3-31C134-8 116 4 84 4 32 4 16-41 15-95c0-56 19-97 73-99zm17 164c33 0 40-30 41-66 1-37-9-64-41-64s-38 30-39 65c0 43 13 65 39 65" id="aS"/><g id="q"><use transform="matrix(0.04938271604938272,0,0,0.04938271604938272,0,0)" xlink:href="#aM"/><use transform="matrix(0.04938271604938272,0,0,0.04938271604938272,12.790123456790125,0)" xlink:href="#aN"/><use transform="matrix(0.04938271604938272,0,0,0.04938271604938272,23.60493827160494,0)" xlink:href="#aO"/><use transform="matrix(0.04938271604938272,0,0,0.04938271604938272,37.4320987654321,0)" xlink:href="#aP"/><use transform="matrix(0.04938271604938272,0,0,0.04938271604938272,48.24691358024692,0)" xlink:href="#aQ"/><use transform="matrix(0.04938271604938272,0,0,0.04938271604938272,53.18518518518519,0)" xlink:href="#aN"/><use transform="matrix(0.04938271604938272,0,0,0.04938271604938272,64,0)" xlink:href="#aR"/><use transform="matrix(0.04938271604938272,0,0,0.04938271604938272,73.87654320987654,0)" xlink:href="#aS"/></g><path fill="#333" d="M185-48c-13 30-37 53-82 52C43 2 14-33 14-96s30-98 90-98c62 0 83 45 84 108H66c0 31 8 55 39 56 18 0 30-7 34-22zm-45-69c5-46-57-63-70-21-2 6-4 13-4 21h74" id="aT"/><path fill="#333" d="M128 0H69L1-190h53L99-40l48-150h52" id="aU"/><path fill="#333" d="M135-150c-39-12-60 13-60 57V0H25l-1-190h47c2 13-1 29 3 40 6-28 27-53 61-41v41" id="aV"/><path fill="#333" d="M123 10C108 53 80 86 19 72V37c35 8 53-11 59-39L3-190h52l48 148c12-52 28-100 44-148h51" id="aW"/><g id="r"><use transform="matrix(0.04938271604938272,0,0,0.04938271604938272,0,0)" xlink:href="#aT"/><use transform="matrix(0.04938271604938272,0,0,0.04938271604938272,9.876543209876544,0)" xlink:href="#aU"/><use transform="matrix(0.04938271604938272,0,0,0.04938271604938272,19.75308641975309,0)" xlink:href="#aT"/><use transform="matrix(0.04938271604938272,0,0,0.04938271604938272,29.629629629629633,0)" xlink:href="#aV"/><use transform="matrix(0.04938271604938272,0,0,0.04938271604938272,36.543209876543216,0)" xlink:href="#aW"/></g><path fill="#333" d="M115-159c48 0 72 30 72 78 0 54-30 85-83 85-64 0-91-50-91-122 0-98 58-163 141-120 15 8 21 24 27 44l-47 6c-5-31-48-31-61-4-7 14-11 33-11 60 9-17 28-27 53-27zM102-35c24 0 36-20 36-45s-11-43-37-43c-23 0-36 14-36 38 0 27 11 50 37 50" id="aX"/><path fill="#333" d="M114-157C55-157 80-60 75 0H25v-261h50l-1 109c12-26 28-41 61-42 86-1 58 113 63 194h-50c-7-57 23-157-34-157" id="aY"/><g id="s"><use transform="matrix(0.04938271604938272,0,0,0.04938271604938272,0,0)" xlink:href="#aX"/><use transform="matrix(0.04938271604938272,0,0,0.04938271604938272,9.876543209876544,0)" xlink:href="#aY"/></g><g id="t"><use transform="matrix(0.04938271604938272,0,0,0.04938271604938272,0,0)" xlink:href="#aN"/><use transform="matrix(0.04938271604938272,0,0,0.04938271604938272,10.814814814814815,0)" xlink:href="#aP"/></g><path fill="#333" d="M220-157c-53 9-28 100-34 157h-49v-107c1-27-5-49-29-50C55-147 81-57 75 0H25l-1-190h47c2 12-1 28 3 38 10-53 101-56 108 0 13-22 24-43 59-42 82 1 51 116 57 194h-49v-107c-1-25-5-48-29-50" id="aZ"/><g id="u"><use transform="matrix(0.04938271604938272,0,0,0.04938271604938272,0,0)" xlink:href="#aS"/><use transform="matrix(0.04938271604938272,0,0,0.04938271604938272,10.814814814814815,0)" xlink:href="#aT"/><use transform="matrix(0.04938271604938272,0,0,0.04938271604938272,20.69135802469136,0)" xlink:href="#aZ"/><use transform="matrix(0.04938271604938272,0,0,0.04938271604938272,36.49382716049383,0)" xlink:href="#aR"/><use transform="matrix(0.04938271604938272,0,0,0.04938271604938272,46.370370370370374,0)" xlink:href="#aP"/><use transform="matrix(0.04938271604938272,0,0,0.04938271604938272,57.18518518518519,0)" xlink:href="#aS"/></g><path fill="#333" d="M182-182c0 78-84 86-111 141h115V0H12c-6-101 99-100 120-180 1-22-12-31-33-32-23 0-32 14-35 34l-49-3c5-45 32-70 84-70 51 0 83 22 83 69" id="ba"/><g id="v"><use transform="matrix(0.04938271604938272,0,0,0.04938271604938272,0,0)" xlink:href="#ba"/><use transform="matrix(0.04938271604938272,0,0,0.04938271604938272,9.876543209876544,0)" xlink:href="#aY"/></g><path fill="#333" d="M165-50V0h-47v-50H5v-38l105-160h55v161h33v37h-33zm-47-37l2-116L46-87h72" id="bb"/><g id="w"><use transform="matrix(0.04938271604938272,0,0,0.04938271604938272,0,0)" xlink:href="#bb"/><use transform="matrix(0.04938271604938272,0,0,0.04938271604938272,9.876543209876544,0)" xlink:href="#aY"/></g><path fill="#333" d="M67-125c0 53 21 87 73 88 37 1 54-22 65-47l45 17C233-25 199 4 140 4 58 4 20-42 15-125 8-235 124-281 211-232c18 10 29 29 36 50l-46 12c-8-25-30-41-62-41-52 0-71 34-72 86" id="bc"/><path fill="#333" d="M115-3C79 11 28 4 28-45v-112H4v-33h27l15-45h31v45h36v33H77v99c-1 23 16 31 38 25v30" id="bd"/><g id="x"><use transform="matrix(0.04938271604938272,0,0,0.04938271604938272,0,0)" xlink:href="#bc"/><use transform="matrix(0.04938271604938272,0,0,0.04938271604938272,12.790123456790125,0)" xlink:href="#aV"/><use transform="matrix(0.04938271604938272,0,0,0.04938271604938272,19.703703703703706,0)" xlink:href="#aT"/><use transform="matrix(0.04938271604938272,0,0,0.04938271604938272,29.58024691358025,0)" xlink:href="#aR"/><use transform="matrix(0.04938271604938272,0,0,0.04938271604938272,39.4567901234568,0)" xlink:href="#bd"/><use transform="matrix(0.04938271604938272,0,0,0.04938271604938272,45.33333333333334,0)" xlink:href="#aT"/></g><path fill="#333" d="M25-224v-37h50v37H25zM25 0v-190h50V0H25" id="be"/><g id="y"><use transform="matrix(0.04938271604938272,0,0,0.04938271604938272,0,0)" xlink:href="#bc"/><use transform="matrix(0.04938271604938272,0,0,0.04938271604938272,12.790123456790125,0)" xlink:href="#aN"/><use transform="matrix(0.04938271604938272,0,0,0.04938271604938272,23.60493827160494,0)" xlink:href="#aU"/><use transform="matrix(0.04938271604938272,0,0,0.04938271604938272,33.48148148148148,0)" xlink:href="#be"/><use transform="matrix(0.04938271604938272,0,0,0.04938271604938272,38.41975308641975,0)" xlink:href="#aS"/><use transform="matrix(0.04938271604938272,0,0,0.04938271604938272,49.23456790123457,0)" xlink:href="#bc"/><use transform="matrix(0.04938271604938272,0,0,0.04938271604938272,62.0246913580247,0)" xlink:href="#aN"/><use transform="matrix(0.04938271604938272,0,0,0.04938271604938272,72.8395061728395,0)" xlink:href="#aS"/><use transform="matrix(0.04938271604938272,0,0,0.04938271604938272,83.65432098765432,0)" xlink:href="#aT"/></g><path fill="#333" d="M195-6C206 82 75 100 31 46c-4-6-6-13-8-21l49-6c3 16 16 24 34 25 40 0 42-37 40-79-11 22-30 35-61 35-53 0-70-43-70-97 0-56 18-96 73-97 30 0 46 14 59 34l2-30h47zm-90-29c32 0 41-27 41-63 0-35-9-62-40-62-32 0-39 29-40 63 0 36 9 62 39 62" id="bf"/><g id="z"><use transform="matrix(0.04938271604938272,0,0,0.04938271604938272,0,0)" xlink:href="#bf"/><use transform="matrix(0.04938271604938272,0,0,0.04938271604938272,10.814814814814815,0)" xlink:href="#aT"/><use transform="matrix(0.04938271604938272,0,0,0.04938271604938272,20.69135802469136,0)" xlink:href="#bd"/></g><path fill="#333" d="M140-251c80 0 125 45 125 126S219 4 139 4C58 4 15-44 15-125s44-126 125-126zm-1 214c52 0 73-35 73-88 0-50-21-86-72-86-52 0-73 35-73 86s22 88 72 88" id="bg"/><path fill="#333" d="M137-138c1-29-70-34-71-4 15 46 118 7 119 86 1 83-164 76-172 9l43-7c4 19 20 25 44 25 33 8 57-30 24-41C81-84 22-81 20-136c-2-80 154-74 161-7" id="bh"/><g id="A"><use transform="matrix(0.04938271604938272,0,0,0.04938271604938272,0,0)" xlink:href="#bg"/><use transform="matrix(0.04938271604938272,0,0,0.04938271604938272,13.827160493827162,0)" xlink:href="#aP"/><use transform="matrix(0.04938271604938272,0,0,0.04938271604938272,24.641975308641975,0)" xlink:href="#bh"/><use transform="matrix(0.04938271604938272,0,0,0.04938271604938272,34.51851851851852,0)" xlink:href="#aT"/><use transform="matrix(0.04938271604938272,0,0,0.04938271604938272,44.39506172839506,0)" xlink:href="#bd"/></g><g id="B"><use transform="matrix(0.04938271604938272,0,0,0.04938271604938272,0,0)" xlink:href="#aM"/><use transform="matrix(0.04938271604938272,0,0,0.04938271604938272,12.790123456790125,0)" xlink:href="#aR"/><use transform="matrix(0.04938271604938272,0,0,0.04938271604938272,22.66666666666667,0)" xlink:href="#bd"/><use transform="matrix(0.04938271604938272,0,0,0.04938271604938272,28.54320987654322,0)" xlink:href="#aT"/></g><path fill="#333" d="M121-226c-27-7-43 5-38 36h38v33H83V0H34v-157H6v-33h28c-9-59 32-81 87-68v32" id="bi"/><g id="C"><use transform="matrix(0.04938271604938272,0,0,0.04938271604938272,0,0)" xlink:href="#bi"/><use transform="matrix(0.04938271604938272,0,0,0.04938271604938272,5.8765432098765435,0)" xlink:href="#aN"/><use transform="matrix(0.04938271604938272,0,0,0.04938271604938272,16.691358024691358,0)" xlink:href="#aV"/></g><path fill="#333" d="M190-63c-7 42-38 67-86 67-59 0-84-38-90-98-12-110 154-137 174-36l-49 2c-2-19-15-32-35-32-30 0-35 28-38 64-6 74 65 87 74 30" id="bj"/><g id="D"><use transform="matrix(0.04938271604938272,0,0,0.04938271604938272,0,0)" xlink:href="#bc"/><use transform="matrix(0.04938271604938272,0,0,0.04938271604938272,12.790123456790125,0)" xlink:href="#aN"/><use transform="matrix(0.04938271604938272,0,0,0.04938271604938272,23.60493827160494,0)" xlink:href="#aU"/><use transform="matrix(0.04938271604938272,0,0,0.04938271604938272,33.48148148148148,0)" xlink:href="#be"/><use transform="matrix(0.04938271604938272,0,0,0.04938271604938272,38.41975308641975,0)" xlink:href="#aS"/><use transform="matrix(0.04938271604938272,0,0,0.04938271604938272,49.23456790123457,0)" xlink:href="#bj"/><use transform="matrix(0.04938271604938272,0,0,0.04938271604938272,59.111111111111114,0)" xlink:href="#aN"/><use transform="matrix(0.04938271604938272,0,0,0.04938271604938272,69.92592592592592,0)" xlink:href="#aS"/><use transform="matrix(0.04938271604938272,0,0,0.04938271604938272,80.74074074074073,0)" xlink:href="#aT"/></g><path fill="#333" d="M144 0l-44-69L55 0H2l70-98-66-92h53l41 62 40-62h54l-67 91 71 99h-54" id="bk"/><g id="E"><use transform="matrix(0.04938271604938272,0,0,0.04938271604938272,0,0)" xlink:href="#aT"/><use transform="matrix(0.04938271604938272,0,0,0.04938271604938272,9.876543209876544,0)" xlink:href="#bk"/><use transform="matrix(0.04938271604938272,0,0,0.04938271604938272,19.75308641975309,0)" xlink:href="#bj"/><use transform="matrix(0.04938271604938272,0,0,0.04938271604938272,29.629629629629633,0)" xlink:href="#aY"/><use transform="matrix(0.04938271604938272,0,0,0.04938271604938272,40.44444444444445,0)" xlink:href="#aR"/><use transform="matrix(0.04938271604938272,0,0,0.04938271604938272,50.320987654320994,0)" xlink:href="#aP"/><use transform="matrix(0.04938271604938272,0,0,0.04938271604938272,61.13580246913581,0)" xlink:href="#bf"/><use transform="matrix(0.04938271604938272,0,0,0.04938271604938272,71.95061728395062,0)" xlink:href="#aT"/></g><g id="F"><use transform="matrix(0.04938271604938272,0,0,0.04938271604938272,0,0)" xlink:href="#bc"/><use transform="matrix(0.04938271604938272,0,0,0.04938271604938272,12.790123456790125,0)" xlink:href="#aN"/><use transform="matrix(0.04938271604938272,0,0,0.04938271604938272,23.60493827160494,0)" xlink:href="#aU"/><use transform="matrix(0.04938271604938272,0,0,0.04938271604938272,33.48148148148148,0)" xlink:href="#be"/><use transform="matrix(0.04938271604938272,0,0,0.04938271604938272,38.41975308641975,0)" xlink:href="#aS"/><use transform="matrix(0.04938271604938272,0,0,0.04938271604938272,49.23456790123457,0)" xlink:href="#bc"/><use transform="matrix(0.04938271604938272,0,0,0.04938271604938272,62.0246913580247,0)" xlink:href="#aN"/><use transform="matrix(0.04938271604938272,0,0,0.04938271604938272,72.8395061728395,0)" xlink:href="#aS"/><use transform="matrix(0.04938271604938272,0,0,0.04938271604938272,83.65432098765432,0)" xlink:href="#aT"/></g><path fill="#333" d="M176-78C186 10 51 31 16-35c-5-9-9-19-11-32l52-8c4 21 12 37 35 38 23 0 32-16 32-40v-130H75v-41h101v170" id="bl"/><path fill="#333" d="M275 0h-61l-44-196L126 0H64L0-248h53L97-49l45-199h58l43 199 44-199h52" id="bm"/><path fill="#333" d="M136-208V0H84v-208H4v-40h212v40h-80" id="bn"/><g id="G"><use transform="matrix(0.04938271604938272,0,0,0.04938271604938272,0,0)" xlink:href="#bl"/><use transform="matrix(0.04938271604938272,0,0,0.04938271604938272,9.876543209876544,0)" xlink:href="#bm"/><use transform="matrix(0.04938271604938272,0,0,0.04938271604938272,26.617283950617285,0)" xlink:href="#bn"/></g><path fill="#333" d="M147 0L96-86 75-71V0H25v-261h50v150l67-79h53l-66 74L201 0h-54" id="bo"/><g id="H"><use transform="matrix(0.04938271604938272,0,0,0.04938271604938272,0,0)" xlink:href="#bd"/><use transform="matrix(0.04938271604938272,0,0,0.04938271604938272,5.8765432098765435,0)" xlink:href="#aN"/><use transform="matrix(0.04938271604938272,0,0,0.04938271604938272,16.691358024691358,0)" xlink:href="#bo"/><use transform="matrix(0.04938271604938272,0,0,0.04938271604938272,26.567901234567902,0)" xlink:href="#aT"/><use transform="matrix(0.04938271604938272,0,0,0.04938271604938272,36.44444444444444,0)" xlink:href="#aP"/><use transform="matrix(0.04938271604938272,0,0,0.04938271604938272,47.25925925925926,0)" xlink:href="#bh"/></g><path fill="#333" d="M238-95c0 69-44 99-111 99C63 4 22-25 22-93v-155h51v151c-1 38 19 59 55 60 90 1 49-130 58-211h52v153" id="bp"/><path fill="#333" d="M135-194c53 0 70 44 70 98 0 56-19 98-73 100-31 1-45-17-59-34 3 33 2 69 2 105H25l-1-265h48c2 10 0 23 3 31 11-24 29-35 60-35zM114-30c33 0 39-31 40-66 0-38-9-64-40-64-56 0-55 130 0 130" id="bq"/><g id="I"><use transform="matrix(0.04938271604938272,0,0,0.04938271604938272,0,0)" xlink:href="#bp"/><use transform="matrix(0.04938271604938272,0,0,0.04938271604938272,12.790123456790125,0)" xlink:href="#bq"/><use transform="matrix(0.04938271604938272,0,0,0.04938271604938272,23.60493827160494,0)" xlink:href="#aQ"/><use transform="matrix(0.04938271604938272,0,0,0.04938271604938272,28.543209876543212,0)" xlink:href="#aN"/><use transform="matrix(0.04938271604938272,0,0,0.04938271604938272,39.358024691358025,0)" xlink:href="#aR"/><use transform="matrix(0.04938271604938272,0,0,0.04938271604938272,49.23456790123457,0)" xlink:href="#aS"/></g><path fill="#333" d="M24 0v-248h195v40H76v63h132v40H76v65h150V0H24" id="br"/><path fill="#333" d="M195 0l-88-114-31 24V0H24v-248h52v113l112-113h60L142-143 257 0h-62" id="bs"/><g id="J"><use transform="matrix(0.04938271604938272,0,0,0.04938271604938272,0,0)" xlink:href="#bn"/><use transform="matrix(0.04938271604938272,0,0,0.04938271604938272,10.814814814814815,0)" xlink:href="#br"/><use transform="matrix(0.04938271604938272,0,0,0.04938271604938272,22.666666666666668,0)" xlink:href="#bs"/><use transform="matrix(0.04938271604938272,0,0,0.04938271604938272,35.45679012345679,0)" xlink:href="#bh"/></g><path fill="#333" d="M14-72v-43h91v43H14" id="bt"/><g id="K"><use transform="matrix(0.04938271604938272,0,0,0.04938271604938272,0,0)" xlink:href="#bc"/><use transform="matrix(0.04938271604938272,0,0,0.04938271604938272,12.790123456790125,0)" xlink:href="#aY"/><use transform="matrix(0.04938271604938272,0,0,0.04938271604938272,23.60493827160494,0)" xlink:href="#aT"/><use transform="matrix(0.04938271604938272,0,0,0.04938271604938272,33.48148148148148,0)" xlink:href="#bj"/><use transform="matrix(0.04938271604938272,0,0,0.04938271604938272,43.358024691358025,0)" xlink:href="#bo"/><use transform="matrix(0.04938271604938272,0,0,0.04938271604938272,53.23456790123457,0)" xlink:href="#bt"/><use transform="matrix(0.04938271604938272,0,0,0.04938271604938272,59.111111111111114,0)" xlink:href="#be"/><use transform="matrix(0.04938271604938272,0,0,0.04938271604938272,64.0493827160494,0)" xlink:href="#aP"/><use transform="matrix(0.04938271604938272,0,0,0.04938271604938272,74.8641975308642,0)" xlink:href="#bh"/></g></defs></g></svg>